<svg xmlns="http://www.w3.org/2000/svg" viewBox="65 28.5 279.5 95.5"><style type="text/css">  
	.st0{fill:#FFFFFF;}
	.st1{fill:#E6E6E6;}
	.st2{fill:#41A523;}
	.st3{fill:#0064AA;}
	.st4{fill:#008CDC;}
</style><path class="st0" d="M227.8 4.5C219.3-4 208.9-8.4 196.7-8.4c-12.2 0-22.5 4.3-31.1 12.9 -7.1 7.1-11.2 15.4-12.3 24.7 -3.5-0.8-7.1-1.2-10.9-1.2 -12 0-22.4 4.3-31.1 12.9 -4.7 4.6-7.9 9.8-10.1 15.6 -2.5-0.7-5.1-1.1-7.9-1.1 -7.5 0-13.9 2.7-19.2 7.9 -5.3 5.2-8 11.7-8 19.2s2.7 14 7.9 19.3c5.4 5.3 11.7 8 19.2 8 7 0 13-2.3 18-6.8 8.6 8.5 19 12.9 31.1 12.9 5.5 0 10.6-0.8 15.2-2.6 7.4 5.6 16.1 8.3 25.8 8.3 12.2 0 22.5-4.3 31.1-12.9 0.5-0.5 0.9-1 1.4-1.5 7.5 5.7 16.3 8.5 26.2 8.5 12.2 0 22.5-4.3 31.1-12.9 0.1-0.1 0.2-0.2 0.3-0.3 0.7 0.8 1.4 1.6 2.3 2.5 5.3 5.4 11.7 8 19.2 8 6.1 0 11.4-1.7 16.1-5.1 2.6 1.1 5.5 1.7 8.5 1.7 6 0 11-2.1 15.2-6.3 4.2-4.2 6.4-9.4 6.4-15.3 0-6-2.2-11.1-6.4-15.3 -4.2-4.2-9.3-6.3-15.2-6.3 -1.8 0-3.4 0.2-5 0.5 -0.1-0.1-0.2-0.2-0.3-0.3 -5.2-5.3-11.7-7.9-19.3-7.9 -3.7 0-7.1 0.6-10.3 2 -1.9-7.5-5.8-14.1-11.5-19.9 -8.5-8.5-18.9-12.9-31.1-12.9 -0.7 0-1.3 0-2.1 0.1C238.6 19 234.5 11.2 227.8 4.5L227.8 4.5z"/><path class="st1" d="M106.4 46.7c-0.2 0.2-0.3 0.4-0.5 0.7 0.1 0 0.1 0 0.2 0C106.2 47.2 106.3 46.9 106.4 46.7z"/><path class="st1" d="M160.5 10.6c-2 2.9-3.7 5.9-4.9 9.1 0.8 0.1 1.7 0.3 2.5 0.5C158.6 16.8 159.4 13.6 160.5 10.6z"/><path class="st1" d="M339.8 94.2c-4.2 4.2-9.3 6.3-15.2 6.3 -3.1 0-6-0.5-8.5-1.7 -4.6 3.4-10 5.1-16.1 5.1 -7.5 0-13.9-2.7-19.2-8 -0.8-0.8-1.5-1.6-2.3-2.5 -0.1 0.1-0.2 0.2-0.3 0.3 -8.5 8.5-18.9 12.9-31.1 12.9 -10 0-18.7-2.9-26.2-8.5 -0.5 0.5-0.9 1-1.4 1.5 -8.5 8.5-18.9 12.9-31.1 12.9 -9.8 0-18.4-2.8-25.8-8.3 -4.6 1.7-9.8 2.6-15.2 2.6 -12 0-22.4-4.3-31.1-12.9 -5 4.5-11 6.8-18 6.8 -7.5 0-13.9-2.7-19.2-8C73.6 87.4 71 81 71 73.4c0-2.8 0.4-5.5 1.1-8.1 -4 4.8-6 10.6-6 17.1 0 7.5 2.7 14 7.9 19.3 5.4 5.3 11.7 8 19.2 8 7 0 13-2.3 18-6.8 8.6 8.5 19 12.9 31.1 12.9 5.5 0 10.6-0.8 15.2-2.6 7.4 5.6 16.1 8.3 25.8 8.3 12.2 0 22.5-4.3 31.1-12.9 0.5-0.5 0.9-1 1.4-1.5 7.5 5.7 16.3 8.5 26.2 8.5 12.2 0 22.5-4.3 31.1-12.9 0.1-0.1 0.2-0.2 0.3-0.3 0.7 0.8 1.4 1.6 2.3 2.5 5.3 5.4 11.7 8 19.2 8 6.1 0 11.4-1.7 16.1-5.1 2.6 1.1 5.5 1.7 8.5 1.7 6 0 11-2.1 15.2-6.3 2.9-2.9 4.8-6.3 5.7-10C340.4 93.6 340.1 93.9 339.8 94.2z"/><path class="st0" d="M245 75c-2.2-0.1-3.4 1.1-3.4 3 0 1.7 1.3 2.9 2.6 2.9 2.2 0.1 3.4-1.1 3.4-3C247.6 75.8 246.3 75.1 245 75z"/><path class="st2" d="M121.5 64.2c0 0 0.2 3.2-0.1 3.7 -0.1 0.2-4.1 0.3-4.2 0.2 -0.1 0 0.4 12 0.2 12.1 -0.2 0.2-5.2 0.5-5.4 0.1 -0.2-0.4-0.1-11.9-0.1-12.2 -0.3 0-2.6 0-2.7 0 -0.1-0.1-0.4-3.6-0.3-3.8 0.2-0.2 3.1-0.4 3.1-0.4 0 0-0.1-1.7-0.1-3.1 0-2.8 2-5.5 5.8-5.5 2.8 0 4.6 1.1 5.2 1.6 -0.1 0.9-1 3.8-1.2 3.9 -0.4 0-1.4-0.8-2.6-0.8 -1.4 0-2 1.1-2 2.3 0 0.5 0 1.2 0 1.3C117.4 63.9 121.2 63.8 121.5 64.2z"/><path class="st2" d="M133.1 69.6c-0.5-0.1-1.6-0.4-2.3-0.3 -1.5 0-2.3 1.1-2.5 2.5 -0.1 0.7 0.2 8.4 0.1 8.5 -0.1 0.1-5.4 0.2-5.5 0 -0.1-0.1-0.1-15.3 0-15.9 0.3-0.5 4.9-0.7 5.2-0.4 0 0.7 0 2.1 0 2.3 1.2-2.1 3.6-2.6 5.8-2.2C134.3 64.4 133.7 68.9 133.1 69.6z"/><path class="st2" d="M141.4 63.7c4.1 0 7.3 2.4 7.3 7.2 0 3.5-0.2 9-0.3 9.2 -0.1 0.2-4.3 0-4.3 0l-0.3-1.4c-0.2 0.2-1.6 1.8-4.2 1.8 -3.6 0-5.1-2.1-5.1-5 0-3 2.6-4.9 5.9-4.9 1.5 0 2.4 0.4 3.1 0.9 0-1.4 0.1-3.4-2.9-3.4 -2 0-3 1.5-3.3 1.5 -0.3 0-2.6-2-2.5-2.3C134.8 66.8 137 63.7 141.4 63.7zM141.1 77.3c1.5 0 2.2-0.9 2.2-1.8 0-1.2-1-1.9-2.2-1.9 -1.3 0-2.1 0.8-2.1 1.9C138.9 76.5 139.8 77.3 141.1 77.3z"/><path class="st2" d="M166.9 64.1c0.1 0.4 0.3 10.9 0.3 12.9 0.1 8.7-4.3 10.7-8.4 10.7 -3.9 0-6.7-1.7-7.1-2.4 0.3-1.1 1.1-2.8 1.6-3.5 0.2-0.2 1.9 1.5 4.7 1.5 2.8 0 3.9-2.1 3.8-5 -0.3 0.5-1.6 1.9-4.5 1.9 -3.5 0-7.6-2.7-7.6-7.8 0-5.2 3.7-8.4 7.7-8.4 2.1 0 3.7 0.8 4.8 1.9 0-0.2 0.1-1.6 0.1-1.8C162.9 63.7 166.8 64 166.9 64.1zM158.7 75.9c1.8 0 3.3-1.3 3.3-3.4 0-2-1.1-3.5-3.3-3.5 -1.8 0-3.2 1.2-3.2 3.4C155.5 74.5 156.6 75.9 158.7 75.9z"/><path class="st3" d="M171.1 80.4c-0.1-1.1-0.4-20.6-0.3-23.1 1.4-0.2 15.6-0.3 15.9 0 0.3 0.6 0.2 4 0.1 5 -0.9 0.1-7.5 0.1-10.2 0l0.1 5.8c2.9 0 7.9 0.1 8.1 0.2 0.4 0.3 0.1 4.3 0.1 4.5 0 0.2-5 0.2-8.1 0.1 0.1 2.8 0.1 6.4 0.1 7.4C176.8 80.5 171.3 80.6 171.1 80.4z"/><path class="st3" d="M195 57.3c0.2 1.4 0.2 20.9 0 23 -0.2 0.6-5.8 0.4-5.9 0.1 -0.1-2.3-0.2-19.9 0-23C190.2 57 194.8 57.1 195 57.3z"/><path class="st3" d="M212.4 80.5c-0.6-0.8-5.4-8.6-8.6-13.5 0 4.8 0.2 10.7 0.1 13.2 -1.1 0.3-5.7 0.3-5.7 0 -0.2-1.9-0.3-20.5 0-22.7 0.1-0.6 5.3-0.6 5.4-0.4 0.4 0.6 6 9.2 8.7 14.3 0.1-5.3-0.1-12.1 0-13.8 1.1-0.3 5.5-0.2 5.7 0 0.2 0.2 0.1 20.3-0.2 22.6C217.7 80.7 212.8 80.8 212.4 80.5z"/><path class="st4" d="M272.5 76.4c1.8 0 3-0.6 3.9-1.2 0.3 0.3 1.7 3.1 1.7 3.6 -0.9 0.8-3.2 1.9-5.8 1.9 -6 0-8.4-4-8.4-8.2 0-4.5 2.8-8.6 8-8.6 4.4 0 7.1 3.3 7.1 7 0 1-0.1 1.9-0.3 2.5 -1.6 0.2-7.6 0.2-9.6 0.2C269 75.3 270.3 76.4 272.5 76.4zM274.2 70.4c0.1-1.6-0.8-2.9-2.3-2.9 -1.7 0-2.8 1.3-2.8 3L274.2 70.4z"/><path class="st3" d="M238.6 78c0-2.1 1-3.7 2.6-4.4 0.1-6.7 0.1-16 0-16.2 -0.2-0.2-4.6-0.3-5.7 0 -0.1 1.7 0.1 8.5 0 13.8 -2.8-5.1-8.4-13.7-8.7-14.3 -0.2-0.2-5.3-0.2-5.4 0.4 -0.3 2.2-0.2 20.8 0 22.7 0 0.3 4.6 0.3 5.7 0 0.1-2.5-0.1-8.4-0.1-13.2 3.2 5 8 12.7 8.6 13.5 0.3 0.2 2.3 0.2 3.8 0C238.9 79.8 238.6 78.9 238.6 78z"/><path class="st4" d="M262.5 55.5c-0.7-0.3-5.2-0.1-5.5 0.1 -0.3 0.2-0.2 9-0.2 10.1 -0.3-0.4-2.1-1.7-4.3-1.7 -3.9 0-7.7 2.9-7.7 8 0 0.5 0 0.9 0.1 1.3 2 0.5 3.3 2.2 3.3 4.6 0 0.4 0 0.8-0.1 1.2 1.2 0.8 2.6 1.3 4 1.3 2.8 0 4.7-1.5 5-1.9 0 0.2 0.1 1.6 0.1 1.8 1.2 0.5 4.8 0.1 4.9 0C262.2 80 262.6 55.5 262.5 55.5zM253.8 75.6c-1.8 0-3.2-1.2-3.2-3.4 0-2 1.2-3.5 3.2-3.5 1.8 0 3.3 1.3 3.3 3.4C257.1 74.2 256 75.6 253.8 75.6z"/><path class="st4" d="M243 81.1c0.1 0 0.1 0 0.2 0 2.2 0 3.4-1.2 3.4-3.2 0-2.3-1.4-3-2.8-3.1 -0.1 0-0.2 0-0.4 0 -2.1 0-3.2 1.2-3.2 3.2C240.3 79.8 241.7 81 243 81.1z"/></svg>